<?xml version="1.0" standalone="no"?>
<!DOCTYPE svg PUBLIC "-//W3C//DTD SVG 20010904//EN"
 "http://www.w3.org/TR/2001/REC-SVG-20010904/DTD/svg10.dtd">
<svg version="1.0" xmlns="http://www.w3.org/2000/svg"
 width="269.000000pt" height="269.000000pt" viewBox="0 0 269.000000 269.000000"
 preserveAspectRatio="xMidYMid meet">
<metadata>
Created by potrace 1.11, written by Peter Selinger 2001-2013
</metadata>
<g transform="translate(0.000000,269.000000) scale(0.100000,-0.100000)"
fill="#000000" stroke="none">
<path d="M592 2338 c-29 -173 -29 -174 30 -144 21 11 26 11 22 1 -6 -15 65
-279 80 -301 10 -12 17 -11 55 9 45 24 59 51 39 74 -6 7 -7 13 -3 13 3 0 -19
47 -49 104 -31 57 -56 108 -56 114 0 5 9 12 21 15 26 7 21 28 -9 42 -12 5 -22
16 -22 23 0 14 -80 112 -91 112 -4 0 -12 -28 -17 -62z"/>
<path d="M852 2250 c-22 -10 -42 -22 -45 -27 -3 -5 10 -33 29 -62 106 -157
109 -207 20 -395 -145 -306 -325 -601 -398 -653 -39 -28 -141 -133 -259 -267
-19 -22 -46 -52 -62 -68 -15 -16 -26 -32 -23 -36 233 -407 383 -659 398 -668
7 -4 17 1 22 11 71 121 193 288 242 330 l58 50 131 6 c71 3 144 11 160 17 17
7 48 16 70 22 22 5 68 28 102 50 47 30 71 40 100 38 49 -2 76 13 101 54 31 51
35 75 19 108 -15 29 -15 29 18 40 80 27 106 124 49 186 l-25 26 33 -7 c18 -4
51 -16 72 -27 21 -11 57 -26 78 -34 22 -7 57 -27 78 -44 110 -87 213 -70 227
39 5 40 4 42 -73 121 -87 90 -150 127 -274 159 -74 19 -150 47 -150 56 0 2 51
20 113 39 63 20 154 58 203 84 49 27 102 52 118 56 16 4 45 23 64 42 31 31 34
39 29 75 -10 76 -50 95 -138 64 -64 -23 -333 -90 -480 -119 -125 -26 -242 -33
-267 -18 -37 24 -48 166 -27 353 l17 154 -22 57 c-35 94 -128 174 -228 197
-32 7 -49 5 -80 -9z m603 -1216 c13 -5 14 -8 3 -15 -19 -13 -28 -11 -28 6 0
17 2 18 25 9z"/>
<path d="M2282 2191 c-24 -6 -23 -6 12 -53 20 -26 36 -52 36 -57 0 -6 5 -11
10 -11 23 0 7 -44 -40 -110 l-50 -70 38 0 c35 0 41 4 72 51 l33 51 29 -51 c27
-46 33 -51 64 -51 19 0 34 2 34 5 0 3 -22 38 -48 78 l-48 72 47 70 c26 38 46
72 43 76 -5 9 -45 6 -62 -5 -7 -4 -21 -25 -32 -47 -11 -21 -24 -39 -28 -39 -4
0 -20 22 -36 49 -29 49 -34 52 -74 42z"/>
<path d="M270 2147 c0 -7 22 -74 50 -149 48 -132 49 -138 35 -172 -10 -23 -22
-36 -37 -38 -18 -2 -23 -9 -23 -33 0 -28 2 -30 35 -27 19 1 42 10 51 20 9 9
47 100 84 202 37 102 70 191 72 198 4 8 -6 12 -31 12 l-35 0 -34 -107 c-29
-90 -35 -104 -42 -83 -4 14 -21 62 -37 108 -28 77 -32 82 -59 82 -17 0 -29 -5
-29 -13z"/>
<path d="M2030 1861 c0 -5 4 -21 10 -35 7 -19 6 -24 -4 -20 -15 6 -286 -64
-300 -77 -11 -10 37 -105 51 -102 6 1 23 4 37 7 15 3 74 30 131 60 l105 55 6
-24 c3 -14 10 -25 16 -25 11 0 168 132 168 141 0 8 -129 29 -179 29 -23 0 -41
-4 -41 -9z"/>
<path d="M2027 1222 c-37 -41 -44 -112 -11 -112 8 0 14 -4 14 -8 0 -7 31 -21
197 -89 30 -12 32 -15 21 -38 -6 -14 -9 -27 -7 -29 6 -6 210 -39 214 -34 4 4
-89 166 -104 181 -8 8 -15 5 -25 -8 -8 -11 -12 -23 -10 -26 2 -4 -3 -9 -11
-13 -8 -3 -14 -1 -12 3 1 5 -34 35 -78 66 -44 32 -101 73 -126 91 -44 32 -47
33 -62 16z"/>
<path d="M2339 778 c-7 -42 -5 -43 64 -46 58 -3 85 -13 59 -24 -16 -6 -137
-179 -136 -193 1 -8 2 -19 3 -25 0 -6 45 -10 111 -10 l110 0 0 28 0 27 -75 0
c-68 -1 -74 1 -62 17 6 9 39 54 73 100 67 91 82 127 56 129 -63 5 -202 3 -203
-3z"/>
</g>
</svg>
